<?xml version="1.0" standalone="no"?>
<!DOCTYPE svg PUBLIC "-//W3C//DTD SVG 20010904//EN"
 "http://www.w3.org/TR/2001/REC-SVG-20010904/DTD/svg10.dtd">
<svg version="1.0" xmlns="http://www.w3.org/2000/svg"
 width="163.000000pt" height="78.000000pt" viewBox="0 0 163.000000 78.000000"
 preserveAspectRatio="xMidYMid meet">
<metadata>
Created by potrace 1.10, written by Peter Selinger 2001-2011
</metadata>
<g transform="translate(0.000000,78.000000) scale(0.100000,-0.100000)"
fill="#000000" stroke="none">
<path d="M1062 621 c-20 -67 -86 -90 -152 -53 l-31 17 -45 -48 c-37 -39 -44
-50 -34 -62 7 -8 16 -12 21 -10 4 3 38 1 75 -5 65 -11 70 -10 117 16 134 73
307 15 371 -125 41 -90 25 -211 -37 -279 l-20 -22 61 0 c56 0 62 2 62 20 0 42
29 79 70 91 l40 12 0 69 c0 66 -1 68 -26 68 -15 0 -38 12 -55 29 -33 34 -38
75 -13 123 l16 31 -45 44 -44 45 -31 -16 c-48 -25 -89 -20 -123 13 -17 17 -29
40 -29 55 0 25 -2 26 -68 26 l-69 0 -11 -39z m124 -13 c10 -12 13 -18 7 -14
-9 5 -11 2 -7 -8 3 -9 10 -14 14 -11 4 2 16 -5 26 -18 18 -20 18 -21 1 -7 -13
9 -42 14 -87 13 -57 -1 -68 1 -63 14 5 12 7 12 15 1 6 -9 7 -6 3 9 -9 32 1 43
39 43 21 0 40 -8 52 -22z m-266 -89 c0 -6 7 -9 15 -5 8 3 15 1 15 -4 0 -12
-36 -20 -72 -17 -29 2 -40 17 -12 17 9 0 12 5 8 12 -5 8 -2 9 11 4 16 -6 16
-4 4 10 -13 16 -12 16 9 5 12 -6 22 -17 22 -22z m348 -8 c103 -53 162 -140
170 -252 5 -75 -16 -155 -48 -184 -27 -25 -25 -7 6 55 22 44 26 62 22 119 -6
114 -64 199 -170 246 -51 23 -68 26 -126 21 -92 -7 -101 -9 -96 -18 3 -4 -3
-8 -13 -8 -11 0 -24 -5 -31 -12 -6 -6 -20 -13 -29 -14 -34 -5 40 46 85 58 23
7 42 15 42 18 0 14 150 -10 188 -29z m151 12 c7 -7 9 -13 4 -13 -4 0 2 -7 13
-16 10 -8 13 -12 5 -8 -9 5 -12 1 -7 -12 4 -13 -1 -23 -13 -31 -15 -10 -22 -8
-39 10 -11 12 -28 28 -38 36 -15 13 -15 15 5 26 12 6 19 14 16 17 -4 3 5 5 18
4 13 0 30 -7 36 -13z m91 -252 c0 -12 2 -13 9 -3 5 9 8 -1 8 -27 0 -22 -3 -38
-7 -36 -4 3 -10 -2 -13 -9 -3 -8 -14 -19 -25 -25 -18 -9 -19 -6 -21 54 -1 44
2 65 10 65 8 0 7 5 -2 17 -12 14 -10 14 14 -1 15 -10 27 -26 27 -35z"/>
<path d="M790 423 c-60 -8 -121 -27 -200 -63 -66 -30 -114 -43 -215 -60 -207
-33 -257 -55 -296 -132 -18 -34 -19 -44 -8 -69 6 -17 20 -34 30 -39 11 -6 243
-10 591 -10 l573 0 28 35 c16 20 35 52 43 71 13 32 13 38 -1 60 -57 87 -413
222 -545 207z m199 -69 c42 -13 126 -49 186 -79 105 -52 108 -54 63 -49 -66 8
-62 -10 8 -41 l55 -25 -26 -35 c-34 -44 -58 -44 -99 -1 -18 19 -45 38 -60 42
-42 10 -98 -11 -121 -46 -20 -29 -21 -30 -107 -30 l-87 0 30 56 c16 31 32 74
35 95 l6 38 112 3 111 3 -100 33 c-124 42 -202 45 -295 13 -133 -45 -131 -50
19 -51 l133 0 -7 -37 c-3 -21 -19 -63 -34 -93 l-27 -55 -100 -3 c-100 -3 -100
-3 -115 24 -15 29 -63 54 -101 54 -31 0 -89 -37 -95 -61 -5 -17 -15 -19 -128
-19 -146 0 -161 8 -130 67 28 51 79 72 257 103 127 23 175 36 247 69 49 23
109 46 133 51 60 12 148 3 237 -26z m-523 -225 c-7 10 -3 12 15 6 13 -4 31
-14 40 -21 9 -8 18 -12 21 -9 2 3 5 -2 5 -10 0 -12 -15 -15 -74 -15 -77 0 -79
2 -44 40 12 13 20 14 30 6 12 -9 13 -8 7 3z m650 2 c11 9 15 9 10 1 -4 -7 -1
-15 8 -18 9 -3 16 -13 16 -21 0 -11 -13 -13 -62 -11 -34 2 -63 8 -65 14 -5 15
60 44 69 31 4 -7 12 -6 24 4z"/>
<path d="M207 193 c-38 -17 -54 -29 -45 -34 28 -18 163 20 163 46 0 20 -62 14
-118 -12z"/>
</g>
</svg>
